<svg width="45" height="45" viewBox="0 0 45 45" fill="none" xmlns="http://www.w3.org/2000/svg">
<g clip-path="url(#clip0_182_1308)">
<path d="M0 39.4021L3.7291 35.673L9.32275 41.2666L5.59365 44.9957L0 39.4021Z" fill="#BE66F9"/>
<path d="M5.5957 33.8091L23.6785 15.7263L29.2722 21.3199L11.1894 39.4027L5.5957 33.8091Z" fill="#BE66F9"/>
<path d="M33.0977 17.5011C33.8449 16.7539 34.2564 15.7605 34.2564 14.7038C34.2564 13.6471 33.8449 12.6537 33.0977 11.9065C32.3505 11.1593 31.3571 10.7478 30.3004 10.7478C29.2438 10.7478 28.2503 11.1593 27.5032 11.9065L25.5488 13.8609L31.1433 19.4554L33.0977 17.5011Z" fill="#BE66F9"/>
<path d="M17.5683 14.9045H20.2056C20.2056 12.1542 22.4432 9.91664 25.1935 9.91664V7.27928C22.4432 7.27928 20.2056 5.0417 20.2056 2.2915H17.5683C17.5683 5.0417 15.3308 7.27928 12.5806 7.27928V9.91655C15.3309 9.91655 17.5683 12.1541 17.5683 14.9045Z" fill="#BE66F9"/>
<path d="M37.7731 20.2769H35.1358C35.1358 23.0271 32.8982 25.2647 30.1479 25.2647V27.902C32.8982 27.902 35.1358 30.1396 35.1358 32.8898H37.7731C37.7731 30.1396 40.0107 27.902 42.761 27.902V25.2647C40.0106 25.2647 37.7731 23.0271 37.7731 20.2769Z" fill="#BE66F9"/>
<path d="M40.0123 0.00439453H37.3751C37.3751 2.75468 35.1375 4.99226 32.3872 4.99226V7.62953C35.1375 7.62953 37.3751 9.86711 37.3751 12.6174H40.0123C40.0123 9.86711 42.2499 7.62953 45.0002 7.62953V4.99226C42.2499 4.99226 40.0123 2.75468 40.0123 0.00439453Z" fill="#BE66F9"/>
<path d="M42.3628 15.916H45.0001V18.5533H42.3628V15.916Z" fill="#BE66F9"/>
<path d="M26.417 0.00439453H29.0543V2.64166H26.417V0.00439453Z" fill="#BE66F9"/>
</g>
<defs>
<clipPath id="clip0_182_1308">
<rect width="45" height="45" fill="white"/>
</clipPath>
</defs>
</svg>
